<svg width="270" height="147" viewBox="0 0 270 147" fill="none" xmlns="http://www.w3.org/2000/svg">
<rect width="270" height="147" rx="8" fill="black" fill-opacity="0.04"/>
<path fill-rule="evenodd" clip-rule="evenodd" d="M170.429 76.6526V67.5979V58.5431L161.52 58.5215L152.61 58.5L152.634 59.537L152.658 60.5741L160.507 60.5956C164.824 60.6076 168.365 60.6266 168.376 60.6379C168.387 60.6494 168.415 64.2573 168.439 68.6557L168.483 76.6526H169.456H170.429ZM113.771 72.7114C113.767 69.446 113.736 67.9094 113.674 67.8344C113.543 67.6766 111.715 67.6802 111.584 67.8384C111.518 67.9182 111.483 69.3825 111.468 72.7677L111.446 77.5835L110.811 77.6258L110.177 77.6681L110.152 78.5555C110.131 79.3236 110.148 79.4575 110.277 79.5522C110.46 79.6858 114.726 79.6965 114.973 79.5639C115.105 79.4933 115.127 79.3684 115.127 78.6876C115.127 78.2508 115.104 77.8333 115.076 77.7597C115.036 77.6557 114.895 77.6258 114.446 77.6258C114.128 77.6258 113.847 77.5928 113.822 77.5524C113.797 77.5121 113.774 75.3336 113.771 72.7114ZM124.973 71.279C124.974 69.2291 123.921 68.0789 121.802 67.813C121.101 67.7253 117.381 67.6993 117.179 67.7808C117.103 67.8116 117.073 68.1034 117.073 68.827V69.8304L119.379 69.8566C121.595 69.8817 121.7 69.8903 122.048 70.0765C122.537 70.3376 122.743 70.6931 122.743 71.279C122.743 71.8333 122.542 72.2155 122.133 72.4384C121.89 72.5715 121.555 72.596 119.485 72.633L117.116 72.6753L117.094 76.097C117.076 78.7775 117.095 79.5337 117.178 79.5882C117.322 79.6818 118.939 79.6582 119.126 79.5598C119.261 79.4882 119.274 79.2845 119.274 77.1539V74.8261L119.929 74.8508L120.585 74.8755L120.79 75.2986C120.903 75.5314 121.388 76.5749 121.868 77.6178C122.348 78.6606 122.764 79.5364 122.792 79.5641C122.88 79.652 124.93 79.6192 125.021 79.5286C125.079 79.4704 124.886 78.9636 124.425 77.963C123.091 75.0688 122.912 74.6638 122.912 74.5391C122.912 74.4697 123.107 74.3144 123.345 74.194C123.962 73.8809 124.458 73.3343 124.737 72.6567C124.939 72.1667 124.973 71.9655 124.973 71.279ZM141.829 69.5668C141.376 68.6355 140.945 67.8588 140.855 67.8108C140.695 67.7248 139.043 67.7002 138.843 67.7808C138.76 67.8144 138.737 69.0757 138.737 73.6888C138.737 79.1352 138.748 79.558 138.881 79.6094C139.046 79.6725 140.46 79.6636 140.747 79.5975L140.937 79.5538V76.3523C140.937 74.582 140.971 73.13 141.012 73.1043C141.126 73.0339 141.176 73.1191 142.277 75.2563C142.84 76.3501 143.521 77.6639 143.79 78.1759L144.28 79.1067L145.226 79.1306C145.913 79.1479 146.2 79.1247 146.273 79.046C146.329 78.9863 147.007 77.6649 147.781 76.1096C148.555 74.5542 149.236 73.2658 149.294 73.2464C149.376 73.2191 149.4 73.5969 149.4 74.9515C149.4 76.0741 149.359 76.5212 149.557 76.6898C149.718 76.8276 150.038 76.7795 150.669 76.762L151.558 76.7373L151.58 72.2834L151.602 67.8296L151.41 67.7784C151.094 67.6936 149.654 67.7184 149.48 67.8116C149.33 67.8922 149.193 68.1454 148.668 69.3158C148.428 69.8521 146.81 73.3176 145.707 75.6583C145.504 76.0889 145.307 76.4411 145.269 76.4411C145.207 76.4411 144.058 74.1468 141.829 69.5668ZM159.56 69.8404L159.536 68.8037L159.512 67.7671L156.844 67.7448C154.839 67.728 154.149 67.748 154.072 67.8252C153.994 67.9037 153.97 69.2891 153.97 73.7098V79.4918L154.19 79.5755C154.322 79.6259 155.425 79.6504 156.961 79.6369L159.512 79.6145L159.536 78.5355L159.56 77.4566H157.96C156.699 77.4566 156.339 77.4317 156.262 77.3393C156.196 77.2597 156.173 76.8306 156.189 76.0064L156.212 74.7909L158.564 74.7486C160.53 74.7132 160.928 74.6855 160.995 74.5793C161.086 74.4361 161.103 73.4317 161.024 72.9503L160.971 72.633H158.672C156.997 72.633 156.345 72.6054 156.271 72.5314C156.164 72.4245 156.121 70.2341 156.221 69.9743C156.266 69.8586 156.495 69.8404 157.916 69.8404H159.56ZM133.375 71.279C133.026 70.3714 132.581 69.2194 132.384 68.7191C132.178 68.1923 131.979 67.8094 131.914 67.8094C131.788 67.8094 131.699 67.999 131.161 69.4173C130.958 69.9525 130.68 70.6761 130.544 71.0251C129.012 74.9609 128.336 76.7107 128.057 77.4566C127.874 77.9453 127.632 78.5666 127.519 78.8373C127.406 79.108 127.313 79.379 127.313 79.4397C127.313 79.5829 127.766 79.6547 128.678 79.6559C129.199 79.6565 129.436 79.6231 129.505 79.5392C129.591 79.4363 130.432 77.0926 131.464 74.0802C131.646 73.5497 131.815 73.0953 131.84 73.0704C131.941 72.9691 132.071 73.2529 132.55 74.6241C132.826 75.414 133.302 76.7714 133.609 77.6405C133.916 78.5097 134.167 79.2596 134.167 79.307C134.167 79.5236 134.526 79.6268 135.349 79.6471C136.217 79.6685 136.537 79.6234 136.537 79.48C136.537 79.4356 136.401 79.0478 136.235 78.6183C135.565 76.8884 135.167 75.872 135.019 75.5102C134.818 75.0191 134.174 73.361 133.375 71.279ZM101.672 78.4384C101.672 71.2329 101.659 70.4459 101.538 70.3995C101.341 70.3239 99.7856 70.3394 99.6616 70.4181C99.5774 70.4716 99.5599 72.3429 99.577 79.4928L99.5985 88.5H108.526H117.454V87.4845V86.469L109.563 86.4474L101.672 86.4259V78.4384Z" fill="black" fill-opacity="0.2"/>
</svg>
