<svg width="24" height="24" viewBox="0 0 24 24" fill="none" xmlns="http://www.w3.org/2000/svg">
<path d="M7 20C6.71667 20 6.47917 19.9042 6.2875 19.7125C6.09583 19.5208 6 19.2833 6 19V17H19V8H21C21.2833 8 21.5208 8.09583 21.7125 8.2875C21.9042 8.47917 22 8.71667 22 9V21.575C22 22.025 21.7958 22.3375 21.3875 22.5125C20.9792 22.6875 20.6167 22.6167 20.3 22.3L18 20H7ZM6 15L3.7 17.3C3.38333 17.6167 3.02083 17.6875 2.6125 17.5125C2.20417 17.3375 2 17.025 2 16.575V5C2 4.71667 2.09583 4.47917 2.2875 4.2875C2.47917 4.09583 2.71667 4 3 4H16C16.2833 4 16.5208 4.09583 16.7125 4.2875C16.9042 4.47917 17 4.71667 17 5V14C17 14.2833 16.9042 14.5208 16.7125 14.7125C16.5208 14.9042 16.2833 15 16 15H6ZM15 13V6H4V13H15Z" fill="white"/>
</svg>
