<svg width="40" height="40" viewBox="0 0 40 40" fill="none" xmlns="http://www.w3.org/2000/svg">
<rect width="40" height="40" rx="20" fill="#FDF6ED"/>
<path d="M20 28.3307C19.5417 28.3307 19.1493 28.1675 18.8229 27.8411C18.4965 27.5148 18.3333 27.1224 18.3333 26.6641H21.6667C21.6667 27.1224 21.5035 27.5148 21.1771 27.8411C20.8507 28.1675 20.4583 28.3307 20 28.3307ZM16.6667 25.8307V24.1641H23.3333V25.8307H16.6667ZM16.875 23.3307C15.9167 22.7613 15.1562 21.9974 14.5938 21.0391C14.0312 20.0807 13.75 19.0391 13.75 17.9141C13.75 16.178 14.3576 14.7023 15.5729 13.487C16.7882 12.2717 18.2639 11.6641 20 11.6641C21.7361 11.6641 23.2118 12.2717 24.4271 13.487C25.6424 14.7023 26.25 16.178 26.25 17.9141C26.25 19.0391 25.9688 20.0807 25.4062 21.0391C24.8438 21.9974 24.0833 22.7613 23.125 23.3307H16.875ZM17.375 21.6641H22.625C23.25 21.2196 23.7326 20.671 24.0729 20.0182C24.4132 19.3655 24.5833 18.6641 24.5833 17.9141C24.5833 16.6363 24.1389 15.553 23.25 14.6641C22.3611 13.7752 21.2778 13.3307 20 13.3307C18.7222 13.3307 17.6389 13.7752 16.75 14.6641C15.8611 15.553 15.4167 16.6363 15.4167 17.9141C15.4167 18.6641 15.5868 19.3655 15.9271 20.0182C16.2674 20.671 16.75 21.2196 17.375 21.6641Z" fill="#DB7707"/>
</svg>
