<svg width="20" height="20" viewBox="0 0 20 20" fill="none" xmlns="http://www.w3.org/2000/svg">
<path d="M17 6C16.1667 6 15.4583 5.70833 14.875 5.125C14.2917 4.54167 14 3.83333 14 3C14 2.16667 14.2917 1.45833 14.875 0.875C15.4583 0.291667 16.1667 0 17 0C17.8333 0 18.5417 0.291667 19.125 0.875C19.7083 1.45833 20 2.16667 20 3C20 3.83333 19.7083 4.54167 19.125 5.125C18.5417 5.70833 17.8333 6 17 6ZM10 20C8.61667 20 7.31667 19.7375 6.1 19.2125C4.88333 18.6875 3.825 17.975 2.925 17.075C2.025 16.175 1.3125 15.1167 0.7875 13.9C0.2625 12.6833 0 11.3833 0 10C0 8.61667 0.2625 7.31667 0.7875 6.1C1.3125 4.88333 2.025 3.825 2.925 2.925C3.825 2.025 4.88333 1.3125 6.1 0.7875C7.31667 0.2625 8.61667 0 10 0C10.3 0 10.6 0.0166667 10.9 0.05C11.2 0.0833333 11.4917 0.125 11.775 0.175C12.0417 0.225 12.2375 0.370833 12.3625 0.6125C12.4875 0.854167 12.5 1.1 12.4 1.35C12.3 1.61667 12.125 1.8125 11.875 1.9375C11.625 2.0625 11.3583 2.10833 11.075 2.075C10.8917 2.04167 10.7125 2.02083 10.5375 2.0125C10.3625 2.00417 10.1833 2 10 2C7.76667 2 5.875 2.775 4.325 4.325C2.775 5.875 2 7.76667 2 10C2 12.2333 2.775 14.125 4.325 15.675C5.875 17.225 7.76667 18 10 18C12.2333 18 14.125 17.225 15.675 15.675C17.225 14.125 18 12.2333 18 10C18 9.81667 17.9958 9.6375 17.9875 9.4625C17.9792 9.2875 17.9583 9.10833 17.925 8.925C17.8917 8.64167 17.9375 8.375 18.0625 8.125C18.1875 7.875 18.3833 7.7 18.65 7.6C18.9167 7.5 19.1667 7.5125 19.4 7.6375C19.6333 7.7625 19.775 7.95833 19.825 8.225C19.875 8.50833 19.9167 8.8 19.95 9.1C19.9833 9.4 20 9.7 20 10C20 11.3833 19.7375 12.6833 19.2125 13.9C18.6875 15.1167 17.975 16.175 17.075 17.075C16.175 17.975 15.1167 18.6875 13.9 19.2125C12.6833 19.7375 11.3833 20 10 20ZM8.6 11.75L6.45 9.625C6.26667 9.44167 6.0375 9.35 5.7625 9.35C5.4875 9.35 5.25 9.45 5.05 9.65C4.86667 9.83333 4.775 10.0667 4.775 10.35C4.775 10.6333 4.86667 10.8667 5.05 11.05L7.875 13.9C8.075 14.1 8.30833 14.2 8.575 14.2C8.84167 14.2 9.075 14.1 9.275 13.9L14.5 8.675C14.7333 8.44167 14.8333 8.19583 14.8 7.9375C14.7667 7.67917 14.6583 7.45833 14.475 7.275C14.2917 7.09167 14.0708 6.9875 13.8125 6.9625C13.5542 6.9375 13.3083 7.04167 13.075 7.275L8.6 11.75Z" fill="#5D348B"/>
</svg>
