<svg width="24" height="26" viewBox="0 0 24 26" fill="none" xmlns="http://www.w3.org/2000/svg">
<path d="M11.7302 25.1377C10.4895 25.1377 9.44075 24.7093 8.58404 23.8526C7.72733 22.9959 7.29898 21.9472 7.29898 20.7064C7.29898 19.6823 7.60424 18.7813 8.21477 18.0034C8.8253 17.2254 9.60323 16.6986 10.5486 16.4229V13.9118H5.82189C5.17198 13.9118 4.61561 13.6804 4.15279 13.2176C3.68997 12.7548 3.45856 12.1984 3.45856 11.5485V9.18516H1.68606C1.35126 9.18516 1.07061 9.07192 0.844124 8.84543C0.617638 8.61895 0.504395 8.3383 0.504395 8.0035V2.09516C0.504395 1.76036 0.617638 1.47971 0.844124 1.25322C1.07061 1.02674 1.35126 0.913496 1.68606 0.913496H7.59439C7.9292 0.913496 8.20985 1.02674 8.43633 1.25322C8.66282 1.47971 8.77606 1.76036 8.77606 2.09516V8.0035C8.77606 8.3383 8.66282 8.61895 8.43633 8.84543C8.20985 9.07192 7.9292 9.18516 7.59439 9.18516H5.82189V11.5485H17.6386V9.03745C16.6932 8.76173 15.9153 8.23491 15.3048 7.45697C14.6942 6.67904 14.389 5.77802 14.389 4.75391C14.389 3.51316 14.8173 2.46443 15.674 1.60772C16.5307 0.751017 17.5795 0.322662 18.8202 0.322662C20.061 0.322662 21.1097 0.751017 21.9664 1.60772C22.8231 2.46443 23.2515 3.51316 23.2515 4.75391C23.2515 5.77802 22.9462 6.67904 22.3357 7.45697C21.7252 8.23491 20.9472 8.76173 20.0019 9.03745V11.5485C20.0019 12.1984 19.7705 12.7548 19.3077 13.2176C18.8448 13.6804 18.2885 13.9118 17.6386 13.9118H12.9119V16.4229C13.8572 16.6986 14.6352 17.2254 15.2457 18.0034C15.8562 18.7813 16.1615 19.6823 16.1615 20.7064C16.1615 21.9472 15.7331 22.9959 14.8764 23.8526C14.0197 24.7093 12.971 25.1377 11.7302 25.1377ZM18.8202 6.82183C19.3914 6.82183 19.8788 6.61996 20.2825 6.21623C20.6863 5.81249 20.8881 5.32505 20.8881 4.75391C20.8881 4.18277 20.6863 3.69534 20.2825 3.2916C19.8788 2.88786 19.3914 2.686 18.8202 2.686C18.2491 2.686 17.7617 2.88786 17.3579 3.2916C16.9542 3.69534 16.7523 4.18277 16.7523 4.75391C16.7523 5.32505 16.9542 5.81249 17.3579 6.21623C17.7617 6.61996 18.2491 6.82183 18.8202 6.82183ZM2.86773 6.82183H6.41273V3.27683H2.86773V6.82183ZM11.7302 22.7743C12.3014 22.7743 12.7888 22.5725 13.1925 22.1687C13.5963 21.765 13.7981 21.2776 13.7981 20.7064C13.7981 20.1353 13.5963 19.6478 13.1925 19.2441C12.7888 18.8404 12.3014 18.6385 11.7302 18.6385C11.1591 18.6385 10.6717 18.8404 10.2679 19.2441C9.86418 19.6478 9.66231 20.1353 9.66231 20.7064C9.66231 21.2776 9.86418 21.765 10.2679 22.1687C10.6717 22.5725 11.1591 22.7743 11.7302 22.7743Z" fill="#6A12CD"/>
</svg>
