<svg width="56" height="56" viewBox="0 0 56 56" fill="none" xmlns="http://www.w3.org/2000/svg">
<rect x="4" y="4" width="48" height="48" rx="24" fill="#6A12CD" fill-opacity="0.08"/>
<rect x="4" y="4" width="48" height="48" rx="24" stroke="#F9F6FD" stroke-width="8"/>
<path d="M29 24V20C29 19.7167 29.0958 19.4792 29.2875 19.2875C29.4792 19.0958 29.7167 19 30 19H36C36.2833 19 36.5208 19.0958 36.7125 19.2875C36.9042 19.4792 37 19.7167 37 20V24C37 24.2833 36.9042 24.5208 36.7125 24.7125C36.5208 24.9042 36.2833 25 36 25H30C29.7167 25 29.4792 24.9042 29.2875 24.7125C29.0958 24.5208 29 24.2833 29 24ZM19 28V20C19 19.7167 19.0958 19.4792 19.2875 19.2875C19.4792 19.0958 19.7167 19 20 19H26C26.2833 19 26.5208 19.0958 26.7125 19.2875C26.9042 19.4792 27 19.7167 27 20V28C27 28.2833 26.9042 28.5208 26.7125 28.7125C26.5208 28.9042 26.2833 29 26 29H20C19.7167 29 19.4792 28.9042 19.2875 28.7125C19.0958 28.5208 19 28.2833 19 28ZM29 36V28C29 27.7167 29.0958 27.4792 29.2875 27.2875C29.4792 27.0958 29.7167 27 30 27H36C36.2833 27 36.5208 27.0958 36.7125 27.2875C36.9042 27.4792 37 27.7167 37 28V36C37 36.2833 36.9042 36.5208 36.7125 36.7125C36.5208 36.9042 36.2833 37 36 37H30C29.7167 37 29.4792 36.9042 29.2875 36.7125C29.0958 36.5208 29 36.2833 29 36ZM19 36V32C19 31.7167 19.0958 31.4792 19.2875 31.2875C19.4792 31.0958 19.7167 31 20 31H26C26.2833 31 26.5208 31.0958 26.7125 31.2875C26.9042 31.4792 27 31.7167 27 32V36C27 36.2833 26.9042 36.5208 26.7125 36.7125C26.5208 36.9042 26.2833 37 26 37H20C19.7167 37 19.4792 36.9042 19.2875 36.7125C19.0958 36.5208 19 36.2833 19 36ZM21 27H25V21H21V27ZM31 35H35V29H31V35ZM31 23H35V21H31V23ZM21 35H25V33H21V35Z" fill="#6A12CD"/>
</svg>
