<svg width="24" height="26" viewBox="0 0 24 26" fill="none" xmlns="http://www.w3.org/2000/svg">
<path d="M11.7302 25.1377C10.4895 25.1377 9.44075 24.7093 8.58404 23.8526C7.72733 22.9959 7.29898 21.9472 7.29898 20.7064C7.29898 19.6823 7.60424 18.7813 8.21477 18.0034C8.8253 17.2255 9.60323 16.6986 10.5486 16.4229V13.9119H5.82189C5.17198 13.9119 4.61561 13.6805 4.15279 13.2176C3.68997 12.7548 3.45856 12.1984 3.45856 11.5485V9.18519H1.68606C1.35126 9.18519 1.07061 9.07195 0.844124 8.84546C0.617638 8.61898 0.504395 8.33833 0.504395 8.00353V2.09519C0.504395 1.76039 0.617638 1.47974 0.844124 1.25326C1.07061 1.02677 1.35126 0.913526 1.68606 0.913526H7.59439C7.9292 0.913526 8.20985 1.02677 8.43633 1.25326C8.66282 1.47974 8.77606 1.76039 8.77606 2.09519V8.00353C8.77606 8.33833 8.66282 8.61898 8.43633 8.84546C8.20985 9.07195 7.9292 9.18519 7.59439 9.18519H5.82189V11.5485H17.6386V9.03749C16.6932 8.76176 15.9153 8.23494 15.3048 7.45701C14.6942 6.67907 14.389 5.77805 14.389 4.75394C14.389 3.51319 14.8173 2.46446 15.674 1.60776C16.5307 0.751047 17.5795 0.322693 18.8202 0.322693C20.061 0.322693 21.1097 0.751047 21.9664 1.60776C22.8231 2.46446 23.2515 3.51319 23.2515 4.75394C23.2515 5.77805 22.9462 6.67907 22.3357 7.45701C21.7252 8.23494 20.9472 8.76176 20.0019 9.03749V11.5485C20.0019 12.1984 19.7705 12.7548 19.3077 13.2176C18.8448 13.6805 18.2885 13.9119 17.6386 13.9119H12.9119V16.4229C13.8572 16.6986 14.6352 17.2255 15.2457 18.0034C15.8562 18.7813 16.1615 19.6823 16.1615 20.7064C16.1615 21.9472 15.7331 22.9959 14.8764 23.8526C14.0197 24.7093 12.971 25.1377 11.7302 25.1377ZM18.8202 6.82186C19.3914 6.82186 19.8788 6.61999 20.2825 6.21626C20.6863 5.81252 20.8881 5.32508 20.8881 4.75394C20.8881 4.1828 20.6863 3.69537 20.2825 3.29163C19.8788 2.88789 19.3914 2.68603 18.8202 2.68603C18.2491 2.68603 17.7617 2.88789 17.3579 3.29163C16.9542 3.69537 16.7523 4.1828 16.7523 4.75394C16.7523 5.32508 16.9542 5.81252 17.3579 6.21626C17.7617 6.61999 18.2491 6.82186 18.8202 6.82186ZM2.86773 6.82186H6.41273V3.27686H2.86773V6.82186ZM11.7302 22.7744C12.3014 22.7744 12.7888 22.5725 13.1925 22.1688C13.5963 21.765 13.7981 21.2776 13.7981 20.7064C13.7981 20.1353 13.5963 19.6479 13.1925 19.2441C12.7888 18.8404 12.3014 18.6385 11.7302 18.6385C11.1591 18.6385 10.6717 18.8404 10.2679 19.2441C9.86418 19.6479 9.66231 20.1353 9.66231 20.7064C9.66231 21.2776 9.86418 21.765 10.2679 22.1688C10.6717 22.5725 11.1591 22.7744 11.7302 22.7744Z" fill="#8B33AE" fill-opacity="0.2"/>
</svg>
