<svg width="16" height="16" viewBox="0 0 16 16" fill="none" xmlns="http://www.w3.org/2000/svg">
<path d="M3.5999 13.6C3.2699 13.6 2.9874 13.4825 2.7524 13.2475C2.5174 13.0125 2.3999 12.73 2.3999 12.4V3.60005C2.3999 3.26549 2.51657 2.97905 2.7499 2.74072C2.98324 2.50249 3.26657 2.38894 3.5999 2.40005H9.36657L8.16657 3.60005H3.5999V12.4H12.3999V7.83338L13.5999 6.63338V12.4C13.5999 12.73 13.4824 13.0125 13.2474 13.2475C13.0124 13.4825 12.7299 13.6 12.3999 13.6H3.5999ZM6.3999 9.60005V7.05005L12.2999 1.15005C12.4221 1.02783 12.5555 0.938938 12.6999 0.883382C12.8443 0.827827 12.9916 0.800049 13.1416 0.800049C13.3016 0.800049 13.4541 0.827827 13.5991 0.883382C13.7441 0.938938 13.8773 1.0266 13.9989 1.14638L14.8499 2.00005C14.9721 2.12227 15.061 2.2566 15.1166 2.40305C15.1721 2.54949 15.1999 2.69849 15.1999 2.85005C15.1999 3.00183 15.172 3.1511 15.1162 3.29788C15.0605 3.44455 14.9717 3.5786 14.8499 3.70005L8.9499 9.60005H6.3999ZM7.5999 8.40005H8.4499L12.2999 4.55005L11.8832 4.11672L11.4499 3.70005L7.5999 7.55005V8.40005Z" fill="#26064A" fill-opacity="0.8"/>
</svg>
