<svg width="56" height="56" viewBox="0 0 56 56" fill="none" xmlns="http://www.w3.org/2000/svg">
<rect x="4" y="4" width="48" height="48" rx="24" fill="#6A12CD" fill-opacity="0.08"/>
<rect x="4" y="4" width="48" height="48" rx="24" stroke="#F9F6FD" stroke-width="8"/>
<path d="M26 37L30 33H38V37H26ZM20 35H21.4L30.025 26.375L28.625 24.975L20 33.6V35ZM34.3 24.925L30.05 20.725L31.45 19.325C31.8333 18.9417 32.3043 18.75 32.863 18.75C33.421 18.75 33.8917 18.9417 34.275 19.325L35.675 20.725C36.0583 21.1083 36.2583 21.571 36.275 22.113C36.2917 22.6543 36.1083 23.1167 35.725 23.5L34.3 24.925ZM32.85 26.4L22.25 37H18V32.75L28.6 22.15L32.85 26.4ZM29.325 25.675L28.625 24.975L30.025 26.375L29.325 25.675Z" fill="#6A12CD"/>
</svg>
