<svg width="40" height="40" viewBox="0 0 40 40" fill="none" xmlns="http://www.w3.org/2000/svg">
<rect width="40" height="40" rx="12" fill="#FF4842" fill-opacity="0.08"/>
<path fill-rule="evenodd" clip-rule="evenodd" d="M20 10C14.4772 10 10 14.4772 10 20C10 25.5228 14.4772 30 20 30C25.5228 30 30 25.5228 30 20C30 17.3478 28.9464 14.8043 27.0711 12.9289C25.1957 11.0536 22.6522 10 20 10ZM20 25C19.4477 25 19 24.5523 19 24C19 23.4477 19.4477 23 20 23C20.5523 23 21 23.4477 21 24C21 24.5523 20.5523 25 20 25ZM20 22C20.5523 22 21 21.5523 21 21V16C21 15.4477 20.5523 15 20 15C19.4477 15 19 15.4477 19 16V21C19 21.5523 19.4477 22 20 22Z" fill="#FF4842"/>
</svg>
