<svg width="19" height="15" viewBox="0 0 19 15" fill="none" xmlns="http://www.w3.org/2000/svg">
<path d="M14.1667 11.6667H12.5C12.2639 11.6667 12.066 11.5868 11.9063 11.4271C11.7465 11.2674 11.6667 11.0694 11.6667 10.8333C11.6667 10.5972 11.7465 10.3993 11.9063 10.2396C12.066 10.0799 12.2639 10 12.5 10H14.1667V8.33333C14.1667 8.09722 14.2465 7.89931 14.4063 7.73958C14.566 7.57986 14.7639 7.5 15 7.5C15.2361 7.5 15.434 7.57986 15.5938 7.73958C15.7535 7.89931 15.8333 8.09722 15.8333 8.33333V10H17.5C17.7361 10 17.934 10.0799 18.0938 10.2396C18.2535 10.3993 18.3333 10.5972 18.3333 10.8333C18.3333 11.0694 18.2535 11.2674 18.0938 11.4271C17.934 11.5868 17.7361 11.6667 17.5 11.6667H15.8333V13.3333C15.8333 13.5694 15.7535 13.7674 15.5938 13.9271C15.434 14.0868 15.2361 14.1667 15 14.1667C14.7639 14.1667 14.566 14.0868 14.4063 13.9271C14.2465 13.7674 14.1667 13.5694 14.1667 13.3333V11.6667ZM1.66667 15C1.20833 15 0.815972 14.8368 0.489583 14.5104C0.163194 14.184 0 13.7917 0 13.3333V1.66667C0 1.20833 0.163194 0.815972 0.489583 0.489583C0.815972 0.163194 1.20833 0 1.66667 0H13.3333C13.7917 0 14.184 0.163194 14.5104 0.489583C14.8368 0.815972 15 1.20833 15 1.66667V5C15 5.23611 14.9201 5.43403 14.7604 5.59375C14.6007 5.75347 14.4028 5.83333 14.1667 5.83333C13.9306 5.83333 13.7326 5.75347 13.5729 5.59375C13.4132 5.43403 13.3333 5.23611 13.3333 5V4.16667H1.66667V13.3333H11.6667C11.9028 13.3333 12.1007 13.4132 12.2604 13.5729C12.4201 13.7326 12.5 13.9306 12.5 14.1667C12.5 14.4028 12.4201 14.6007 12.2604 14.7604C12.1007 14.9201 11.9028 15 11.6667 15H1.66667ZM1.66667 2.5H13.3333V1.66667H1.66667V2.5Z" fill="#26064A" fill-opacity="0.8"/>
</svg>
