<svg width="73" height="50" viewBox="0 0 73 50" fill="none" xmlns="http://www.w3.org/2000/svg">
<path fill-rule="evenodd" clip-rule="evenodd" d="M2.93398 26.0266V6.5203C2.93398 4.78017 3.6426 3.19243 4.79375 2.04727C5.93892 0.902107 7.52658 0.1875 9.26679 0.1875H66.5456C68.2857 0.1875 69.8735 0.896121 71.0186 2.04727C72.1638 3.19243 72.8784 4.78009 72.8784 6.5203V35.5738C72.8784 37.3139 72.1698 38.9017 71.0186 40.0468C69.8735 41.192 68.2858 41.9066 66.5456 41.9066H27.8882C27.2514 42.971 26.4949 43.9458 25.6248 44.8159C22.9488 47.4919 19.2443 49.1513 15.1598 49.1513C11.0756 49.1513 7.37693 47.4919 4.69486 44.8159C2.01883 42.1398 0.359375 38.4413 0.359375 34.3509C0.359375 31.2562 1.31019 28.3888 2.93077 26.0207L2.93398 26.0266ZM46.1541 14.1264H46.2916C46.7581 14.1264 47.1378 13.7467 47.1378 13.2802C47.1378 12.8138 46.7581 12.434 46.2916 12.434H46.1541C45.6877 12.434 45.3079 12.8138 45.3079 13.2802C45.3079 13.7466 45.6876 14.1264 46.1541 14.1264ZM46.1541 10.2006H46.2916C46.7581 10.2006 47.1378 9.82085 47.1378 9.35439C47.1378 8.88793 46.7581 8.50821 46.2916 8.50821H46.1541C45.6877 8.50821 45.3079 8.88793 45.3079 9.35439C45.3079 9.82085 45.6876 10.2006 46.1541 10.2006ZM46.1541 6.28669H46.2916C46.7581 6.28669 47.1378 5.90697 47.1378 5.44051C47.1378 4.97404 46.7581 4.59432 46.2916 4.59432H46.1541C45.6877 4.59432 45.3079 4.97404 45.3079 5.44051C45.3079 5.90697 45.6876 6.28669 46.1541 6.28669ZM51.3985 14.1262H64.9582C65.4246 14.1262 65.8044 13.7465 65.8044 13.2801C65.8044 12.8136 65.4246 12.4339 64.9582 12.4339H51.3985C50.9321 12.4339 50.5524 12.8136 50.5524 13.2801C50.5524 13.7465 50.9321 14.1262 51.3985 14.1262ZM51.3985 10.2004H64.9582C65.4246 10.2004 65.8044 9.8207 65.8044 9.35424C65.8044 8.88778 65.4246 8.50805 64.9582 8.50805H51.3985C50.9321 8.50805 50.5524 8.88778 50.5524 9.35424C50.5524 9.8207 50.9321 10.2004 51.3985 10.2004ZM51.3985 6.28654H64.9582C65.4246 6.28654 65.8044 5.90682 65.8044 5.44035C65.8044 4.97389 65.4246 4.59417 64.9582 4.59417H51.3985C50.9321 4.59417 50.5524 4.97389 50.5524 5.44035C50.5524 5.90682 50.9321 6.28654 51.3985 6.28654ZM35.1959 4.3999C34.5441 4.32814 33.9161 4.51352 33.4228 4.88427C32.9145 5.26998 32.5528 5.84405 32.4571 6.51977C32.4003 6.89053 32.4421 7.25232 32.5468 7.59015L27.3592 11.4981C27.0602 11.3037 26.7224 11.1692 26.3427 11.1183C25.6968 11.0286 25.0869 11.1901 24.5875 11.5369L19.3431 7.81442C19.376 7.70977 19.3909 7.60512 19.4089 7.50047C19.5045 6.82474 19.3132 6.16992 18.9335 5.66466C18.5477 5.15636 17.9737 4.79459 17.298 4.69891C16.6222 4.60323 15.9674 4.79459 15.4621 5.17431C14.9539 5.56002 14.5921 6.13409 14.4964 6.80981C14.4396 7.19552 14.4814 7.57524 14.5921 7.93102L9.47624 11.9346C9.21013 11.7642 8.91113 11.6536 8.58221 11.5967C8.53437 11.5878 8.48653 11.5818 8.4357 11.5728C7.78389 11.5011 7.15597 11.6864 6.66265 12.0572C6.1723 12.428 5.81647 12.9751 5.70288 13.621C5.69391 13.6688 5.68793 13.7166 5.67896 13.7675C5.6072 14.4193 5.79258 15.0472 6.16333 15.5405C6.53409 16.0309 7.08124 16.3867 7.72711 16.5003C7.77495 16.5093 7.82279 16.5153 7.87362 16.5242C8.52543 16.596 9.15335 16.4106 9.64667 16.0399C10.137 15.6691 10.4929 15.1219 10.6064 14.4761C10.6154 14.4282 10.6214 14.3804 10.6304 14.3296C10.6692 13.9678 10.6304 13.603 10.5257 13.2831L15.6416 9.27947C15.9316 9.45588 16.2545 9.58445 16.6073 9.63527C17.2531 9.72498 17.8631 9.56351 18.3624 9.21667L23.6069 12.9392C23.574 13.0439 23.559 13.1485 23.5411 13.2532C23.4454 13.9289 23.6368 14.5837 24.0165 15.089C24.4022 15.5973 24.9763 15.959 25.652 16.0547C26.3277 16.1504 26.9825 15.959 27.4878 15.5793C27.9961 15.1936 28.3579 14.6195 28.4536 13.9438C28.5014 13.573 28.4685 13.2113 28.3638 12.8734L33.5514 8.96551C33.8504 9.15986 34.1883 9.29441 34.568 9.34524C35.2437 9.44092 35.8985 9.24956 36.4038 8.86983C36.8941 8.49907 37.25 7.95193 37.3636 7.30606C37.3725 7.25822 37.3785 7.21038 37.3875 7.15954C37.4593 6.50773 37.2739 5.87982 36.9031 5.3865C36.5324 4.89614 35.9852 4.54031 35.3393 4.42672C35.2915 4.41775 35.2437 4.41177 35.1928 4.4028L35.1959 4.3999ZM35.5517 6.39722C35.4321 6.23576 35.2527 6.12214 35.0374 6.09224C34.8191 6.05935 34.6098 6.12513 34.4484 6.24473C34.2869 6.36433 34.1733 6.54971 34.1434 6.75901C34.1105 6.97728 34.1763 7.18657 34.2959 7.34803C34.4155 7.50949 34.6009 7.62311 34.8102 7.65301C35.0284 7.6859 35.2377 7.62012 35.3992 7.50052C35.5606 7.38092 35.6743 7.19554 35.7042 6.98624C35.7371 6.76797 35.6713 6.55868 35.5517 6.39722ZM26.6329 13.1097C26.5133 12.9482 26.3339 12.8346 26.1186 12.8047C25.9003 12.7718 25.691 12.8376 25.5296 12.9572C25.3681 13.0768 25.2545 13.2622 25.2246 13.4715C25.1917 13.6897 25.2575 13.899 25.3771 14.0605C25.4967 14.222 25.6821 14.3356 25.8914 14.3655C26.1096 14.3984 26.3189 14.3326 26.4804 14.213C26.6418 14.0934 26.7555 13.908 26.7854 13.6987C26.8182 13.4804 26.7525 13.2711 26.6329 13.1097ZM17.5824 6.68127C17.4628 6.51981 17.2774 6.40619 17.0681 6.37629C16.8498 6.3434 16.6406 6.40918 16.4791 6.52878C16.3176 6.64838 16.204 6.83376 16.1741 7.04306C16.1412 7.26133 16.207 7.47062 16.3266 7.63208C16.4462 7.79354 16.6316 7.90717 16.8409 7.93706C17.0592 7.96995 17.2684 7.90417 17.4299 7.78457C17.5914 7.66498 17.705 7.47959 17.7349 7.27029C17.7678 7.05202 17.702 6.84273 17.5824 6.68127ZM8.79217 13.5612C8.67257 13.3997 8.48719 13.2861 8.27789 13.2562C8.05962 13.2233 7.85033 13.2891 7.68887 13.4087C7.52741 13.5283 7.41379 13.7077 7.38389 13.923C7.351 14.1413 7.41678 14.3506 7.53638 14.512C7.65598 14.6735 7.84136 14.7871 8.05066 14.817C8.26893 14.8499 8.47822 14.7841 8.63968 14.6645C8.80114 14.5449 8.91476 14.3595 8.94466 14.1502C8.97755 13.932 8.91177 13.7227 8.79217 13.5612ZM57.7408 22.7043C57.2743 22.7043 56.8946 23.084 56.8946 23.5505V38.2552C56.8946 38.7216 57.2743 39.1014 57.7408 39.1014H65.9661C66.4325 39.1014 66.8123 38.7217 66.8123 38.2552V23.5505C66.8123 23.084 66.4326 22.7043 65.9661 22.7043H57.7408ZM65.114 24.4056H58.587V37.4088H65.114V24.4056ZM46.6541 17.9921C46.1877 17.9921 45.8079 18.3719 45.8079 18.8383V38.255C45.8079 38.7215 46.1877 39.1012 46.6541 39.1012H54.8794C55.3459 39.1012 55.7256 38.7215 55.7256 38.255V18.8383C55.7256 18.3719 55.3459 17.9921 54.8794 17.9921H46.6541ZM54.0274 19.6935H47.5003V37.4117H54.0274V19.6935ZM35.5583 27.2581C35.0918 27.2581 34.7121 27.6378 34.7121 28.1043V38.2554C34.7121 38.7219 35.0918 39.1016 35.5583 39.1016H43.7836C44.25 39.1016 44.6298 38.7219 44.6298 38.2554V28.1043C44.6298 27.6378 44.2501 27.2581 43.7836 27.2581H35.5583ZM42.9315 28.9594H36.4044V37.4121H42.9315V28.9594ZM28.7588 40.2044H66.5459C67.8196 40.2044 68.9797 39.6811 69.8169 38.844C70.654 38.0068 71.1773 36.8466 71.1773 35.573L71.1803 6.51946C71.1803 5.24571 70.657 4.08562 69.8198 3.24846C68.9827 2.41131 67.8225 1.88806 66.5489 1.88806L9.26697 1.88507C7.99322 1.88507 6.83313 2.40831 5.99598 3.24547C5.15882 4.08263 4.63557 5.24279 4.63557 6.51647V23.9599C4.63557 23.9599 4.67444 23.9121 4.70135 23.8941C7.37738 21.2181 11.0759 19.5586 15.1663 19.5586C15.6328 19.5586 16.0125 19.9384 16.0125 20.4048V33.5067H29.1144C29.5809 33.5067 29.9606 33.8864 29.9606 34.3529C29.9606 36.4309 29.5331 38.4043 28.7587 40.2013L28.7588 40.2044ZM28.2355 35.2111H15.1665C14.7001 35.2111 14.3204 34.8314 14.3204 34.365V21.296C11.0403 21.5053 8.09227 22.9225 5.90979 25.1082C3.5417 27.4763 2.07367 30.7563 2.07367 34.3653C2.07367 37.9742 3.53879 41.2542 5.90979 43.6225C8.27788 45.9906 11.5578 47.4586 15.1669 47.4586C18.776 47.4586 22.0558 45.9935 24.4241 43.6225C26.6068 41.4398 28.027 38.4887 28.2363 35.2119L28.2355 35.2111ZM17.472 31.4558C17.472 31.9222 17.8517 32.302 18.3182 32.302H30.4932C30.9596 32.302 31.3394 31.9222 31.3394 31.4558C31.3394 27.8619 29.8803 24.5998 27.5271 22.2469C25.174 19.8938 21.912 18.4287 18.3182 18.4287C17.8518 18.4287 17.472 18.8084 17.472 19.2749V31.4558ZM19.1643 20.1595V30.6008H29.6056C29.3963 27.8142 28.1794 25.3085 26.3196 23.4458C24.4598 21.586 21.951 20.3689 19.1643 20.1595Z" fill="#26064A" fill-opacity="0.4"/>
</svg>
