<svg width="16" height="16" viewBox="0 0 16 16" fill="none" xmlns="http://www.w3.org/2000/svg">
<path d="M10.45 7.33325H12.6667V4.66659H10.45V7.33325ZM6.88333 7.33325H9.1V4.66659H6.88333V7.33325ZM3.33333 7.33325H5.55V4.66659H3.33333V7.33325ZM3.33333 11.3333H5.55V8.66659H3.33333V11.3333ZM6.88333 11.3333H9.1V8.66659H6.88333V11.3333ZM10.45 11.3333H12.6667V8.66659H10.45V11.3333ZM2 11.3333V4.66659C2 4.29992 2.13056 3.98603 2.39167 3.72492C2.65278 3.46381 2.96667 3.33325 3.33333 3.33325H12.6667C13.0333 3.33325 13.3472 3.46381 13.6083 3.72492C13.8694 3.98603 14 4.29992 14 4.66659V11.3333C14 11.6999 13.8694 12.0138 13.6083 12.2749C13.3472 12.536 13.0333 12.6666 12.6667 12.6666H3.33333C2.96667 12.6666 2.65278 12.536 2.39167 12.2749C2.13056 12.0138 2 11.6999 2 11.3333Z" fill="#26064A" fill-opacity="0.8"/>
</svg>
