<svg width="40" height="40" viewBox="0 0 40 40" fill="none" xmlns="http://www.w3.org/2000/svg">
<rect x="40" y="20" width="28.2843" height="28.2843" rx="6.24205" transform="rotate(135 40 20)" fill="url(#paint0_linear_2837_4873)" fill-opacity="0.64"/>
<rect x="39.7241" y="20" width="27.8941" height="27.8941" rx="6.04698" transform="rotate(135 39.7241 20)" stroke="white" stroke-opacity="0.15" stroke-width="0.390128"/>
<path d="M16 13.3007V12H24.402V13.3007H24.1559C23.3669 13.3007 22.8513 13.4492 22.6091 13.746C22.3747 14.0351 22.2576 14.5351 22.2576 15.246V24.644C22.2576 25.3706 22.3787 25.8784 22.6208 26.1674C22.8708 26.4487 23.3825 26.5893 24.1559 26.5893H24.402V27.89H16V26.5893C16.8437 26.5893 17.4023 26.4604 17.6757 26.2026C17.957 25.9448 18.0976 25.4253 18.0976 24.644V15.246C18.0976 14.4882 17.9648 13.9765 17.6992 13.7109C17.4413 13.4374 16.875 13.3007 16 13.3007Z" fill="white"/>
<defs>
<linearGradient id="paint0_linear_2837_4873" x1="68.2843" y1="48.2843" x2="40" y2="21.8678" gradientUnits="userSpaceOnUse">
<stop offset="0.16716" stop-color="#9E00FF"/>
<stop offset="0.465265" stop-color="#FF0000"/>
<stop offset="0.745235" stop-color="#FE7C04"/>
<stop offset="1" stop-color="#FFF500"/>
</linearGradient>
</defs>
</svg>
