<svg width="20" height="20" viewBox="0 0 20 20" fill="none" xmlns="http://www.w3.org/2000/svg">
<path d="M7.49997 7.49999V16.6667H13.3333V14.1667C13.3333 13.9305 13.4132 13.7326 13.5729 13.5729C13.7326 13.4132 13.9305 13.3333 14.1666 13.3333H16.6666V7.49999H7.49997ZM5.8333 16.6667V7.47916C5.8333 7.02083 5.99997 6.63194 6.3333 6.31249C6.66664 5.99305 7.06247 5.83333 7.5208 5.83333H16.6666C17.125 5.83333 17.5173 5.99652 17.8437 6.32291C18.1701 6.6493 18.3333 7.04166 18.3333 7.49999V13.4792C18.3333 13.7014 18.2916 13.9132 18.2083 14.1146C18.125 14.316 18.0069 14.493 17.8541 14.6458L14.6458 17.8542C14.493 18.0069 14.3159 18.125 14.1146 18.2083C13.9132 18.2917 13.7014 18.3333 13.4791 18.3333H7.49997C7.04164 18.3333 6.64928 18.1701 6.32289 17.8437C5.9965 17.5174 5.8333 17.125 5.8333 16.6667ZM1.68747 5.20833C1.60414 4.74999 1.69442 4.3368 1.9583 3.96874C2.22219 3.60069 2.5833 3.37499 3.04164 3.29166L12.0833 1.68749C12.5277 1.60416 12.9305 1.69791 13.2916 1.96874C13.6527 2.23958 13.8889 2.59722 14 3.04166L14.1458 3.68749C14.2152 3.96527 14.1736 4.18749 14.0208 4.35416C13.868 4.52083 13.6875 4.61805 13.4791 4.64583C13.2708 4.6736 13.0729 4.63541 12.8854 4.53124C12.6979 4.42708 12.5694 4.2361 12.5 3.95833L12.3541 3.33333L3.3333 4.93749L4.5833 12.1042C4.62497 12.3403 4.5833 12.5521 4.4583 12.7396C4.3333 12.9271 4.15275 13.0417 3.91664 13.0833C3.68053 13.125 3.47219 13.0799 3.29164 12.9479C3.11108 12.816 2.99997 12.6319 2.9583 12.3958L1.68747 5.20833Z" fill="#6A12CD"/>
</svg>
