<svg width="20" height="20" viewBox="0 0 20 20" fill="none" xmlns="http://www.w3.org/2000/svg">
<path d="M7.8 19.7477C5.51667 19.231 3.64583 18.0644 2.1875 16.2477C0.729167 14.431 0 12.3477 0 9.9977C0 7.6477 0.729167 5.56437 2.1875 3.7477C3.64583 1.93104 5.51667 0.764369 7.8 0.247702C8.11667 0.164369 8.39583 0.222702 8.6375 0.422702C8.87917 0.622702 9 0.889369 9 1.2227C9 1.45604 8.93333 1.66437 8.8 1.8477C8.66667 2.03104 8.48333 2.1477 8.25 2.1977C6.41667 2.61437 4.91667 3.5477 3.75 4.9977C2.58333 6.4477 2 8.11437 2 9.9977C2 11.881 2.58333 13.5477 3.75 14.9977C4.91667 16.4477 6.41667 17.381 8.25 17.7977C8.48333 17.8477 8.66667 17.9644 8.8 18.1477C8.93333 18.331 9 18.5394 9 18.7727C9 19.106 8.87917 19.3727 8.6375 19.5727C8.39583 19.7727 8.11667 19.831 7.8 19.7477ZM12.2 19.7477C11.8833 19.831 11.6042 19.7727 11.3625 19.5727C11.1208 19.3727 11 19.106 11 18.7727C11 18.5394 11.0667 18.331 11.2 18.1477C11.3333 17.9644 11.5167 17.8477 11.75 17.7977C12.2 17.6977 12.6375 17.5602 13.0625 17.3852C13.4875 17.2102 13.8917 16.9977 14.275 16.7477C14.4583 16.6144 14.6625 16.5644 14.8875 16.5977C15.1125 16.631 15.3083 16.731 15.475 16.8977C15.7083 17.131 15.8083 17.4019 15.775 17.7102C15.7417 18.0185 15.5917 18.2644 15.325 18.4477C14.8417 18.7477 14.3375 19.006 13.8125 19.2227C13.2875 19.4394 12.75 19.6144 12.2 19.7477ZM16.9 15.4977C16.7333 15.331 16.6333 15.1352 16.6 14.9102C16.5667 14.6852 16.6167 14.481 16.75 14.2977C17 13.9144 17.2125 13.506 17.3875 13.0727C17.5625 12.6394 17.7 12.1977 17.8 11.7477C17.85 11.5144 17.9667 11.3352 18.15 11.2102C18.3333 11.0852 18.5417 11.0227 18.775 11.0227C19.1083 11.0227 19.375 11.1435 19.575 11.3852C19.775 11.6269 19.8333 11.906 19.75 12.2227C19.6167 12.7727 19.4417 13.3102 19.225 13.8352C19.0083 14.3602 18.75 14.8644 18.45 15.3477C18.2667 15.6144 18.0208 15.7644 17.7125 15.7977C17.4042 15.831 17.1333 15.731 16.9 15.4977ZM18.775 8.9977C18.5417 8.9977 18.3333 8.93104 18.15 8.7977C17.9667 8.66437 17.85 8.48104 17.8 8.2477C17.7 7.7977 17.5625 7.3602 17.3875 6.9352C17.2125 6.5102 17 6.10604 16.75 5.7227C16.6167 5.5227 16.5667 5.3102 16.6 5.0852C16.6333 4.8602 16.7333 4.66437 16.9 4.4977C17.1333 4.26437 17.4042 4.16437 17.7125 4.1977C18.0208 4.23104 18.2667 4.38937 18.45 4.6727C18.75 5.15604 19.0083 5.6602 19.225 6.1852C19.4417 6.7102 19.6167 7.2477 19.75 7.7977C19.8333 8.11437 19.775 8.39354 19.575 8.6352C19.375 8.87687 19.1083 8.9977 18.775 8.9977ZM14.275 3.2477C13.8917 2.9977 13.4875 2.7852 13.0625 2.6102C12.6375 2.4352 12.2 2.2977 11.75 2.1977C11.5167 2.1477 11.3333 2.03104 11.2 1.8477C11.0667 1.66437 11 1.45604 11 1.2227C11 0.889369 11.1208 0.622702 11.3625 0.422702C11.6042 0.222702 11.8833 0.164369 12.2 0.247702C12.75 0.381036 13.2875 0.556036 13.8125 0.772702C14.3375 0.989369 14.8417 1.2477 15.325 1.5477C15.6083 1.73104 15.7667 1.97687 15.8 2.2852C15.8333 2.59354 15.7333 2.86437 15.5 3.0977C15.3333 3.26437 15.1375 3.36437 14.9125 3.3977C14.6875 3.43104 14.475 3.38104 14.275 3.2477ZM9.975 14.9977C9.69167 14.9977 9.45417 14.9019 9.2625 14.7102C9.07083 14.5185 8.975 14.281 8.975 13.9977V8.8727L7.1 10.7727C6.9 10.9727 6.6625 11.0727 6.3875 11.0727C6.1125 11.0727 5.875 10.9727 5.675 10.7727C5.475 10.5727 5.37083 10.3352 5.3625 10.0602C5.35417 9.7852 5.45 9.5477 5.65 9.3477L9.275 5.6977C9.45833 5.51437 9.69167 5.4227 9.975 5.4227C10.2583 5.4227 10.4917 5.51437 10.675 5.6977L14.25 9.2727C14.45 9.4727 14.5542 9.71437 14.5625 9.9977C14.5708 10.281 14.475 10.5227 14.275 10.7227C14.075 10.9227 13.8333 11.0227 13.55 11.0227C13.2667 11.0227 13.025 10.9227 12.825 10.7227L10.975 8.8727V13.9977C10.975 14.281 10.8792 14.5185 10.6875 14.7102C10.4958 14.9019 10.2583 14.9977 9.975 14.9977Z" fill="#5D348B"/>
</svg>
