<svg width="20" height="20" viewBox="0 0 20 20" fill="none" xmlns="http://www.w3.org/2000/svg">
<path d="M3.71429 16.2857H4.92857L13.8571 7.35714L12.6429 6.14286L3.71429 15.0714V16.2857ZM2.86143 18C2.62048 18 2.41667 17.9183 2.25 17.7548C2.08333 17.5914 2 17.3889 2 17.1471V15.0793C2 14.8518 2.03968 14.6349 2.11905 14.4286C2.19841 14.2222 2.3254 14.0317 2.5 13.8571L13.8571 2.5C14.0317 2.3254 14.221 2.19841 14.4248 2.11905C14.6284 2.03968 14.8427 2 15.0676 2C15.2924 2 15.5079 2.03968 15.7143 2.11905C15.9206 2.19841 16.1111 2.3254 16.2857 2.5L17.5 3.71429C17.6746 3.88889 17.8016 4.07937 17.881 4.28571C17.9603 4.49206 18 4.7027 18 4.91762C18 5.14698 17.9602 5.36556 17.8805 5.57333C17.8008 5.78111 17.674 5.97095 17.5 6.14286L6.14286 17.5C5.96825 17.6746 5.77817 17.8016 5.57262 17.881C5.36706 17.9603 5.15087 18 4.92405 18H2.86143ZM13.2393 6.76071L12.6429 6.14286L13.8571 7.35714L13.2393 6.76071Z" fill="#26064A" fill-opacity="0.8"/>
</svg>
