<svg width="13" height="13" viewBox="0 0 13 13" fill="none" xmlns="http://www.w3.org/2000/svg">
<path d="M5.525 7.475H0.975C0.69875 7.475 0.467188 7.3821 0.280313 7.19631C0.0934377 7.01052 0 6.78031 0 6.50569C0 6.23106 0.0934377 5.99896 0.280313 5.80938C0.467188 5.61979 0.69875 5.525 0.975 5.525H5.525V0.975C5.525 0.69875 5.6179 0.467187 5.80369 0.280312C5.98948 0.0934368 6.21969 0 6.49431 0C6.76894 0 7.00104 0.0934368 7.19063 0.280312C7.38021 0.467187 7.475 0.69875 7.475 0.975V5.525H12.025C12.3013 5.525 12.5328 5.6179 12.7197 5.80369C12.9066 5.98948 13 6.21969 13 6.49431C13 6.76894 12.9066 7.00104 12.7197 7.19063C12.5328 7.38021 12.3013 7.475 12.025 7.475H7.475V12.025C7.475 12.3013 7.3821 12.5328 7.19631 12.7197C7.01052 12.9066 6.78031 13 6.50569 13C6.23106 13 5.99896 12.9066 5.80938 12.7197C5.61979 12.5328 5.525 12.3013 5.525 12.025V7.475Z" fill="#26064A" fill-opacity="0.6"/>
</svg>
