<svg width="16" height="16" viewBox="0 0 16 16" fill="none" xmlns="http://www.w3.org/2000/svg">
<path d="M7.4001 11.2001H8.6001V7.2001H7.4001V11.2001ZM7.9966 6.0001C8.1656 6.0001 8.30843 5.94293 8.4251 5.8286C8.54176 5.71426 8.6001 5.5726 8.6001 5.4036C8.6001 5.2346 8.54293 5.09176 8.4286 4.9751C8.31426 4.85843 8.1726 4.8001 8.0036 4.8001C7.8346 4.8001 7.69176 4.85726 7.5751 4.9716C7.45843 5.08593 7.4001 5.2276 7.4001 5.3966C7.4001 5.5656 7.45726 5.70843 7.5716 5.8251C7.68593 5.94176 7.8276 6.0001 7.9966 6.0001ZM8.00476 14.4001C7.12388 14.4001 6.29454 14.2334 5.51676 13.9001C4.73899 13.5668 4.05843 13.1084 3.4751 12.5251C2.89176 11.9418 2.43343 11.2614 2.1001 10.4841C1.76676 9.70676 1.6001 8.87621 1.6001 7.99243C1.6001 7.10865 1.76676 6.28065 2.1001 5.50843C2.43343 4.73621 2.89176 4.05843 3.4751 3.4751C4.05843 2.89176 4.73876 2.43343 5.5161 2.1001C6.29343 1.76676 7.12399 1.6001 8.00776 1.6001C8.89154 1.6001 9.71954 1.76676 10.4918 2.1001C11.264 2.43343 11.9418 2.89176 12.5251 3.4751C13.1084 4.05843 13.5668 4.73743 13.9001 5.5121C14.2334 6.28687 14.4001 7.11465 14.4001 7.99543C14.4001 8.87632 14.2334 9.70565 13.9001 10.4834C13.5668 11.2612 13.1084 11.9418 12.5251 12.5251C11.9418 13.1084 11.2628 13.5668 10.4881 13.9001C9.71332 14.2334 8.88554 14.4001 8.00476 14.4001ZM8.0001 13.2001C9.44454 13.2001 10.6723 12.6945 11.6834 11.6834C12.6945 10.6723 13.2001 9.44454 13.2001 8.0001C13.2001 6.55565 12.6945 5.32788 11.6834 4.31676C10.6723 3.30565 9.44454 2.8001 8.0001 2.8001C6.55565 2.8001 5.32788 3.30565 4.31676 4.31676C3.30565 5.32788 2.8001 6.55565 2.8001 8.0001C2.8001 9.44454 3.30565 10.6723 4.31676 11.6834C5.32788 12.6945 6.55565 13.2001 8.0001 13.2001Z" fill="#C73A3A"/>
</svg>
