<svg width="22" height="22" viewBox="0 0 22 22" fill="none" xmlns="http://www.w3.org/2000/svg">
<path d="M3.01204 21.6785C2.37038 21.6785 1.82107 21.45 1.36413 20.9931C0.907183 20.5361 0.678711 19.9868 0.678711 19.3452V3.01183C0.678711 2.37016 0.907183 1.82086 1.36413 1.36391C1.82107 0.90697 2.37038 0.678497 3.01204 0.678497H12.3454C12.6759 0.678497 12.953 0.790303 13.1766 1.01391C13.4002 1.23753 13.512 1.51461 13.512 1.84516C13.512 2.17572 13.4002 2.4528 13.1766 2.67641C12.953 2.90003 12.6759 3.01183 12.3454 3.01183H3.01204V19.3452H19.3454V10.0118C19.3454 9.68128 19.4572 9.40419 19.6808 9.18058C19.9044 8.95697 20.1815 8.84516 20.512 8.84516C20.8426 8.84516 21.1197 8.95697 21.3433 9.18058C21.5669 9.40419 21.6787 9.68128 21.6787 10.0118V19.3452C21.6787 19.9868 21.4502 20.5361 20.9933 20.9931C20.5364 21.45 19.987 21.6785 19.3454 21.6785H3.01204ZM6.51204 8.84516C6.18149 8.84516 5.90441 8.95697 5.68079 9.18058C5.45718 9.40419 5.34538 9.68128 5.34538 10.0118V15.8452C5.34538 16.1757 5.45718 16.4528 5.68079 16.6764C5.90441 16.9 6.18149 17.0118 6.51204 17.0118C6.8426 17.0118 7.11968 16.9 7.34329 16.6764C7.56691 16.4528 7.67871 16.1757 7.67871 15.8452V10.0118C7.67871 9.68128 7.56691 9.40419 7.34329 9.18058C7.11968 8.95697 6.8426 8.84516 6.51204 8.84516ZM11.1787 5.34516C10.8482 5.34516 10.5711 5.45697 10.3475 5.68058C10.1238 5.90419 10.012 6.18127 10.012 6.51183V15.8452C10.012 16.1757 10.1238 16.4528 10.3475 16.6764C10.5711 16.9 10.8482 17.0118 11.1787 17.0118C11.5093 17.0118 11.7864 16.9 12.01 16.6764C12.2336 16.4528 12.3454 16.1757 12.3454 15.8452V6.51183C12.3454 6.18127 12.2336 5.90419 12.01 5.68058C11.7864 5.45697 11.5093 5.34516 11.1787 5.34516ZM15.8454 12.3452C15.5148 12.3452 15.2377 12.457 15.0141 12.6806C14.7905 12.9042 14.6787 13.1813 14.6787 13.5118V15.8452C14.6787 16.1757 14.7905 16.4528 15.0141 16.6764C15.2377 16.9 15.5148 17.0118 15.8454 17.0118C16.1759 17.0118 16.453 16.9 16.6766 16.6764C16.9002 16.4528 17.012 16.1757 17.012 15.8452V13.5118C17.012 13.1813 16.9002 12.9042 16.6766 12.6806C16.453 12.457 16.1759 12.3452 15.8454 12.3452ZM17.012 5.34516H15.8454C15.5148 5.34516 15.2377 5.23336 15.0141 5.00975C14.7905 4.78614 14.6787 4.50905 14.6787 4.1785C14.6787 3.84794 14.7905 3.57086 15.0141 3.34725C15.2377 3.12364 15.5148 3.01183 15.8454 3.01183H17.012V1.84516C17.012 1.51461 17.1238 1.23753 17.3475 1.01391C17.5711 0.790303 17.8482 0.678497 18.1787 0.678497C18.5093 0.678497 18.7864 0.790303 19.01 1.01391C19.2336 1.23753 19.3454 1.51461 19.3454 1.84516V3.01183H20.512C20.8426 3.01183 21.1197 3.12364 21.3433 3.34725C21.5669 3.57086 21.6787 3.84794 21.6787 4.1785C21.6787 4.50905 21.5669 4.78614 21.3433 5.00975C21.1197 5.23336 20.8426 5.34516 20.512 5.34516H19.3454V6.51183C19.3454 6.84239 19.2336 7.11947 19.01 7.34308C18.7864 7.56669 18.5093 7.6785 18.1787 7.6785C17.8482 7.6785 17.5711 7.56669 17.3475 7.34308C17.1238 7.11947 17.012 6.84239 17.012 6.51183V5.34516Z" fill="#6A12CD"/>
</svg>
