<svg width="22" height="22" viewBox="0 0 22 22" fill="none" xmlns="http://www.w3.org/2000/svg">
<path d="M3.01204 21.6785C2.37038 21.6785 1.82107 21.4501 1.36413 20.9931C0.907183 20.5362 0.678711 19.9869 0.678711 19.3452V3.01186C0.678711 2.37019 0.907183 1.82089 1.36413 1.36394C1.82107 0.907 2.37038 0.678528 3.01204 0.678528H12.3454C12.6759 0.678528 12.953 0.790333 13.1766 1.01394C13.4002 1.23756 13.512 1.51464 13.512 1.84519C13.512 2.17575 13.4002 2.45283 13.1766 2.67644C12.953 2.90006 12.6759 3.01186 12.3454 3.01186H3.01204V19.3452H19.3454V10.0119C19.3454 9.68131 19.4572 9.40422 19.6808 9.18061C19.9044 8.957 20.1815 8.84519 20.512 8.84519C20.8426 8.84519 21.1197 8.957 21.3433 9.18061C21.5669 9.40422 21.6787 9.68131 21.6787 10.0119V19.3452C21.6787 19.9869 21.4502 20.5362 20.9933 20.9931C20.5364 21.4501 19.987 21.6785 19.3454 21.6785H3.01204ZM6.51204 8.84519C6.18149 8.84519 5.90441 8.957 5.68079 9.18061C5.45718 9.40422 5.34538 9.68131 5.34538 10.0119V15.8452C5.34538 16.1757 5.45718 16.4528 5.68079 16.6764C5.90441 16.9001 6.18149 17.0119 6.51204 17.0119C6.8426 17.0119 7.11968 16.9001 7.34329 16.6764C7.56691 16.4528 7.67871 16.1757 7.67871 15.8452V10.0119C7.67871 9.68131 7.56691 9.40422 7.34329 9.18061C7.11968 8.957 6.8426 8.84519 6.51204 8.84519ZM11.1787 5.34519C10.8482 5.34519 10.5711 5.457 10.3475 5.68061C10.1238 5.90422 10.012 6.18131 10.012 6.51186V15.8452C10.012 16.1757 10.1238 16.4528 10.3475 16.6764C10.5711 16.9001 10.8482 17.0119 11.1787 17.0119C11.5093 17.0119 11.7864 16.9001 12.01 16.6764C12.2336 16.4528 12.3454 16.1757 12.3454 15.8452V6.51186C12.3454 6.18131 12.2336 5.90422 12.01 5.68061C11.7864 5.457 11.5093 5.34519 11.1787 5.34519ZM15.8454 12.3452C15.5148 12.3452 15.2377 12.457 15.0141 12.6806C14.7905 12.9042 14.6787 13.1813 14.6787 13.5119V15.8452C14.6787 16.1757 14.7905 16.4528 15.0141 16.6764C15.2377 16.9001 15.5148 17.0119 15.8454 17.0119C16.1759 17.0119 16.453 16.9001 16.6766 16.6764C16.9002 16.4528 17.012 16.1757 17.012 15.8452V13.5119C17.012 13.1813 16.9002 12.9042 16.6766 12.6806C16.453 12.457 16.1759 12.3452 15.8454 12.3452ZM17.012 5.34519H15.8454C15.5148 5.34519 15.2377 5.23339 15.0141 5.00978C14.7905 4.78617 14.6787 4.50908 14.6787 4.17853C14.6787 3.84797 14.7905 3.57089 15.0141 3.34728C15.2377 3.12367 15.5148 3.01186 15.8454 3.01186H17.012V1.84519C17.012 1.51464 17.1238 1.23756 17.3475 1.01394C17.5711 0.790333 17.8482 0.678528 18.1787 0.678528C18.5093 0.678528 18.7864 0.790333 19.01 1.01394C19.2336 1.23756 19.3454 1.51464 19.3454 1.84519V3.01186H20.512C20.8426 3.01186 21.1197 3.12367 21.3433 3.34728C21.5669 3.57089 21.6787 3.84797 21.6787 4.17853C21.6787 4.50908 21.5669 4.78617 21.3433 5.00978C21.1197 5.23339 20.8426 5.34519 20.512 5.34519H19.3454V6.51186C19.3454 6.84242 19.2336 7.1195 19.01 7.34311C18.7864 7.56672 18.5093 7.67853 18.1787 7.67853C17.8482 7.67853 17.5711 7.56672 17.3475 7.34311C17.1238 7.1195 17.012 6.84242 17.012 6.51186V5.34519Z" fill="#8B33AE" fill-opacity="0.2"/>
</svg>
