<svg width="16" height="16" viewBox="0 0 16 16" fill="none" xmlns="http://www.w3.org/2000/svg">
<path d="M6.59996 12.6667C5.52218 12.6667 4.59718 12.3167 3.82496 11.6167C3.05274 10.9167 2.66663 10.0445 2.66663 9.00008C2.66663 7.95564 3.05274 7.08342 3.82496 6.38341C4.59718 5.68341 5.52218 5.33341 6.59996 5.33341H10.8L9.06663 3.60008L9.99996 2.66675L13.3333 6.00008L9.99996 9.33342L9.06663 8.40008L10.8 6.66675H6.59996C5.89996 6.66675 5.29163 6.88897 4.77496 7.33342C4.25829 7.77786 3.99996 8.33342 3.99996 9.00008C3.99996 9.66675 4.25829 10.2223 4.77496 10.6667C5.29163 11.1112 5.89996 11.3334 6.59996 11.3334H11.3333V12.6667H6.59996Z" fill="#26064A" fill-opacity="0.8"/>
</svg>
