<svg width="56" height="56" viewBox="0 0 56 56" fill="none" xmlns="http://www.w3.org/2000/svg">
<rect x="4" y="4" width="48" height="48" rx="24" fill="#6A12CD" fill-opacity="0.08"/>
<rect x="4" y="4" width="48" height="48" rx="24" stroke="#F9F6FD" stroke-width="8"/>
<path d="M26 35C25.7167 35 25.4792 34.9042 25.2875 34.7125C25.0958 34.5208 25 34.2833 25 34C25 33.7167 25.0958 33.4792 25.2875 33.2875C25.4792 33.0958 25.7167 33 26 33H36C36.2833 33 36.5208 33.0958 36.7125 33.2875C36.9042 33.4792 37 33.7167 37 34C37 34.2833 36.9042 34.5208 36.7125 34.7125C36.5208 34.9042 36.2833 35 36 35H26ZM26 29C25.7167 29 25.4792 28.9042 25.2875 28.7125C25.0958 28.5208 25 28.2833 25 28C25 27.7167 25.0958 27.4792 25.2875 27.2875C25.4792 27.0958 25.7167 27 26 27H36C36.2833 27 36.5208 27.0958 36.7125 27.2875C36.9042 27.4792 37 27.7167 37 28C37 28.2833 36.9042 28.5208 36.7125 28.7125C36.5208 28.9042 36.2833 29 36 29H26ZM26 23C25.7167 23 25.4792 22.9042 25.2875 22.7125C25.0958 22.5208 25 22.2833 25 22C25 21.7167 25.0958 21.4792 25.2875 21.2875C25.4792 21.0958 25.7167 21 26 21H36C36.2833 21 36.5208 21.0958 36.7125 21.2875C36.9042 21.4792 37 21.7167 37 22C37 22.2833 36.9042 22.5208 36.7125 22.7125C36.5208 22.9042 36.2833 23 36 23H26ZM21 36C20.45 36 19.9792 35.8042 19.5875 35.4125C19.1958 35.0208 19 34.55 19 34C19 33.45 19.1958 32.9792 19.5875 32.5875C19.9792 32.1958 20.45 32 21 32C21.55 32 22.0208 32.1958 22.4125 32.5875C22.8042 32.9792 23 33.45 23 34C23 34.55 22.8042 35.0208 22.4125 35.4125C22.0208 35.8042 21.55 36 21 36ZM21 30C20.45 30 19.9792 29.8042 19.5875 29.4125C19.1958 29.0208 19 28.55 19 28C19 27.45 19.1958 26.9792 19.5875 26.5875C19.9792 26.1958 20.45 26 21 26C21.55 26 22.0208 26.1958 22.4125 26.5875C22.8042 26.9792 23 27.45 23 28C23 28.55 22.8042 29.0208 22.4125 29.4125C22.0208 29.8042 21.55 30 21 30ZM21 24C20.45 24 19.9792 23.8042 19.5875 23.4125C19.1958 23.0208 19 22.55 19 22C19 21.45 19.1958 20.9792 19.5875 20.5875C19.9792 20.1958 20.45 20 21 20C21.55 20 22.0208 20.1958 22.4125 20.5875C22.8042 20.9792 23 21.45 23 22C23 22.55 22.8042 23.0208 22.4125 23.4125C22.0208 23.8042 21.55 24 21 24Z" fill="#6A12CD"/>
</svg>
