<svg width="23" height="21" viewBox="0 0 23 21" fill="none" xmlns="http://www.w3.org/2000/svg">
<path d="M18.3829 17.1785H14.6787C14.3482 17.1785 14.0711 17.0667 13.8475 16.8431C13.6238 16.6195 13.512 16.3424 13.512 16.0118C13.512 15.6813 13.6238 15.4042 13.8475 15.1806C14.0711 14.957 14.3482 14.8452 14.6787 14.8452H18.3829L17.362 13.8243C17.1482 13.591 17.0364 13.3139 17.0266 12.9931C17.0169 12.6722 17.1287 12.3952 17.362 12.1618C17.5954 11.9285 17.8676 11.8118 18.1787 11.8118C18.4898 11.8118 18.762 11.9285 18.9954 12.1618L22.0287 15.1952C22.262 15.4285 22.3787 15.7007 22.3787 16.0118C22.3787 16.3229 22.262 16.5952 22.0287 16.8285L18.9954 19.8618C18.762 20.0952 18.4898 20.2118 18.1787 20.2118C17.8676 20.2118 17.5954 20.0952 17.362 19.8618C17.1287 19.6285 17.0169 19.3514 17.0266 19.0306C17.0364 18.7097 17.1482 18.4327 17.362 18.1993L18.3829 17.1785ZM4.17871 17.1785L1.67038 19.6868C1.47593 19.8813 1.26204 19.9299 1.02871 19.8327C0.795378 19.7354 0.678711 19.5507 0.678711 19.2785V3.17849C0.678711 2.53682 0.907183 1.98751 1.36413 1.53057C1.82107 1.07363 2.37038 0.845154 3.01204 0.845154H17.012C17.6537 0.845154 18.203 1.07363 18.66 1.53057C19.1169 1.98751 19.3454 2.53682 19.3454 3.17849V7.84515C19.3454 8.17571 19.2336 8.45279 19.01 8.6764C18.7864 8.90001 18.5093 9.01182 18.1787 9.01182C17.8482 9.01182 17.5711 8.90001 17.3475 8.6764C17.1238 8.45279 17.012 8.17571 17.012 7.84515V3.17849H3.01204V14.8452H10.012C10.3426 14.8452 10.6197 14.957 10.8433 15.1806C11.0669 15.4042 11.1787 15.6813 11.1787 16.0118C11.1787 16.3424 11.0669 16.6195 10.8433 16.8431C10.6197 17.0667 10.3426 17.1785 10.012 17.1785H4.17871ZM6.51204 7.84515H13.512C13.8426 7.84515 14.1197 7.73335 14.3433 7.50974C14.5669 7.28613 14.6787 7.00904 14.6787 6.67849C14.6787 6.34793 14.5669 6.07085 14.3433 5.84724C14.1197 5.62363 13.8426 5.51182 13.512 5.51182H6.51204C6.18149 5.51182 5.90441 5.62363 5.68079 5.84724C5.45718 6.07085 5.34538 6.34793 5.34538 6.67849C5.34538 7.00904 5.45718 7.28613 5.68079 7.50974C5.90441 7.73335 6.18149 7.84515 6.51204 7.84515ZM6.51204 12.5118H10.012C10.3426 12.5118 10.6197 12.4 10.8433 12.1764C11.0669 11.9528 11.1787 11.6757 11.1787 11.3452C11.1787 11.0146 11.0669 10.7375 10.8433 10.5139C10.6197 10.2903 10.3426 10.1785 10.012 10.1785H6.51204C6.18149 10.1785 5.90441 10.2903 5.68079 10.5139C5.45718 10.7375 5.34538 11.0146 5.34538 11.3452C5.34538 11.6757 5.45718 11.9528 5.68079 12.1764C5.90441 12.4 6.18149 12.5118 6.51204 12.5118Z" fill="#6A12CD"/>
</svg>
