<svg width="23" height="21" viewBox="0 0 23 21" fill="none" xmlns="http://www.w3.org/2000/svg">
<path d="M18.3829 17.1785H14.6787C14.3482 17.1785 14.0711 17.0667 13.8475 16.8431C13.6238 16.6195 13.512 16.3424 13.512 16.0119C13.512 15.6813 13.6238 15.4042 13.8475 15.1806C14.0711 14.957 14.3482 14.8452 14.6787 14.8452H18.3829L17.362 13.8244C17.1482 13.591 17.0364 13.314 17.0266 12.9931C17.0169 12.6723 17.1287 12.3952 17.362 12.1619C17.5954 11.9285 17.8676 11.8119 18.1787 11.8119C18.4898 11.8119 18.762 11.9285 18.9954 12.1619L22.0287 15.1952C22.262 15.4285 22.3787 15.7008 22.3787 16.0119C22.3787 16.323 22.262 16.5952 22.0287 16.8285L18.9954 19.8619C18.762 20.0952 18.4898 20.2119 18.1787 20.2119C17.8676 20.2119 17.5954 20.0952 17.362 19.8619C17.1287 19.6285 17.0169 19.3515 17.0266 19.0306C17.0364 18.7098 17.1482 18.4327 17.362 18.1994L18.3829 17.1785ZM4.17871 17.1785L1.67038 19.6869C1.47593 19.8813 1.26204 19.9299 1.02871 19.8327C0.795378 19.7355 0.678711 19.5508 0.678711 19.2785V3.17855C0.678711 2.53688 0.907183 1.98758 1.36413 1.53063C1.82107 1.07369 2.37038 0.845215 3.01204 0.845215H17.012C17.6537 0.845215 18.203 1.07369 18.66 1.53063C19.1169 1.98758 19.3454 2.53688 19.3454 3.17855V7.84521C19.3454 8.17577 19.2336 8.45285 19.01 8.67647C18.7864 8.90008 18.5093 9.01188 18.1787 9.01188C17.8482 9.01188 17.5711 8.90008 17.3475 8.67647C17.1238 8.45285 17.012 8.17577 17.012 7.84521V3.17855H3.01204V14.8452H10.012C10.3426 14.8452 10.6197 14.957 10.8433 15.1806C11.0669 15.4042 11.1787 15.6813 11.1787 16.0119C11.1787 16.3424 11.0669 16.6195 10.8433 16.8431C10.6197 17.0667 10.3426 17.1785 10.012 17.1785H4.17871ZM6.51204 7.84521H13.512C13.8426 7.84521 14.1197 7.73341 14.3433 7.5098C14.5669 7.28619 14.6787 7.0091 14.6787 6.67855C14.6787 6.34799 14.5669 6.07091 14.3433 5.8473C14.1197 5.62369 13.8426 5.51188 13.512 5.51188H6.51204C6.18149 5.51188 5.90441 5.62369 5.68079 5.8473C5.45718 6.07091 5.34538 6.34799 5.34538 6.67855C5.34538 7.0091 5.45718 7.28619 5.68079 7.5098C5.90441 7.73341 6.18149 7.84521 6.51204 7.84521ZM6.51204 12.5119H10.012C10.3426 12.5119 10.6197 12.4001 10.8433 12.1765C11.0669 11.9529 11.1787 11.6758 11.1787 11.3452C11.1787 11.0147 11.0669 10.7376 10.8433 10.514C10.6197 10.2904 10.3426 10.1785 10.012 10.1785H6.51204C6.18149 10.1785 5.90441 10.2904 5.68079 10.514C5.45718 10.7376 5.34538 11.0147 5.34538 11.3452C5.34538 11.6758 5.45718 11.9529 5.68079 12.1765C5.90441 12.4001 6.18149 12.5119 6.51204 12.5119Z" fill="#8B33AE" fill-opacity="0.2"/>
</svg>
