<svg width="13" height="16" viewBox="0 0 13 16" fill="none" xmlns="http://www.w3.org/2000/svg">
<path d="M11.6667 8.33363C11.6667 11.667 9.33333 13.3336 6.56 14.3003C6.41478 14.3495 6.25703 14.3472 6.11333 14.2936C3.33333 13.3336 1 11.667 1 8.33363V3.66697C1 3.49016 1.07024 3.32059 1.19526 3.19556C1.32029 3.07054 1.48986 3.0003 1.66667 3.0003C3 3.0003 4.66667 2.2003 5.82667 1.18697C5.9679 1.0663 6.14757 1 6.33333 1C6.5191 1 6.69876 1.0663 6.84 1.18697C8.00667 2.20697 9.66667 3.0003 11 3.0003C11.1768 3.0003 11.3464 3.07054 11.4714 3.19556C11.5964 3.32059 11.6667 3.49016 11.6667 3.66697V8.33363Z" stroke="#6A12CD" stroke-width="2" stroke-linecap="round" stroke-linejoin="round"/>
</svg>
