<svg width="17" height="17" viewBox="0 0 17 17" fill="none" xmlns="http://www.w3.org/2000/svg">
<path d="M1.675 16.8C1.21433 16.8 0.82 16.636 0.492 16.308C0.164 15.98 0 15.5857 0 15.125V1.675C0 1.21433 0.164 0.82 0.492 0.492C0.82 0.164 1.21433 0 1.675 0H15.125C15.5857 0 15.98 0.164 16.308 0.492C16.636 0.82 16.8 1.21433 16.8 1.675V15.125C16.8 15.5857 16.636 15.98 16.308 16.308C15.98 16.636 15.5857 16.8 15.125 16.8H1.675ZM4.8 15V1.8H1.8V15H4.8ZM6.6 15H15V1.8H6.6V15Z" fill="#26064A" fill-opacity="0.6"/>
</svg>
