<svg width="21" height="22" viewBox="0 0 21 22" fill="none" xmlns="http://www.w3.org/2000/svg">
<path d="M16.9969 7.30313C16.9135 7.30313 16.8262 7.27813 16.7349 7.22813C16.6429 7.17813 16.5802 7.10313 16.5469 7.00313L15.7469 5.25313L13.9969 4.45312C13.8969 4.41979 13.8219 4.35713 13.7719 4.26513C13.7219 4.17379 13.6969 4.08646 13.6969 4.00312C13.6969 3.91979 13.7219 3.83212 13.7719 3.74012C13.8219 3.64879 13.8969 3.58646 13.9969 3.55313L15.7469 2.75312L16.5469 1.00312C16.5802 0.903125 16.6429 0.828125 16.7349 0.778125C16.8262 0.728125 16.9135 0.703125 16.9969 0.703125C17.0802 0.703125 17.1679 0.728125 17.2599 0.778125C17.3512 0.828125 17.4135 0.903125 17.4469 1.00312L18.2469 2.75312L19.9969 3.55313C20.0969 3.58646 20.1719 3.64879 20.2219 3.74012C20.2719 3.83212 20.2969 3.91979 20.2969 4.00312C20.2969 4.08646 20.2719 4.17379 20.2219 4.26513C20.1719 4.35713 20.0969 4.41979 19.9969 4.45312L18.2469 5.25313L17.4469 7.00313C17.4135 7.10313 17.3512 7.17813 17.2599 7.22813C17.1679 7.27813 17.0802 7.30313 16.9969 7.30313ZM16.9969 21.3031C16.9135 21.3031 16.8262 21.2781 16.7349 21.2281C16.6429 21.1781 16.5802 21.1031 16.5469 21.0031L15.7469 19.2531L13.9969 18.4531C13.8969 18.4198 13.8219 18.3571 13.7719 18.2651C13.7219 18.1738 13.6969 18.0865 13.6969 18.0031C13.6969 17.9198 13.7219 17.8325 13.7719 17.7411C13.8219 17.6491 13.8969 17.5865 13.9969 17.5531L15.7469 16.7531L16.5469 15.0031C16.5802 14.9031 16.6429 14.8281 16.7349 14.7781C16.8262 14.7281 16.9135 14.7031 16.9969 14.7031C17.0802 14.7031 17.1679 14.7281 17.2599 14.7781C17.3512 14.8281 17.4135 14.9031 17.4469 15.0031L18.2469 16.7531L19.9969 17.5531C20.0969 17.5865 20.1719 17.6491 20.2219 17.7411C20.2719 17.8325 20.2969 17.9198 20.2969 18.0031C20.2969 18.0865 20.2719 18.1738 20.2219 18.2651C20.1719 18.3571 20.0969 18.4198 19.9969 18.4531L18.2469 19.2531L17.4469 21.0031C17.4135 21.1031 17.3512 21.1781 17.2599 21.2281C17.1679 21.2781 17.0802 21.3031 16.9969 21.3031ZM6.99687 17.5781C6.81354 17.5781 6.63854 17.5281 6.47188 17.4281C6.30521 17.3281 6.18021 17.1865 6.09688 17.0031L4.49687 13.5031L0.996875 11.9031C0.813542 11.8198 0.671875 11.6948 0.571875 11.5281C0.471875 11.3615 0.421875 11.1865 0.421875 11.0031C0.421875 10.8198 0.471875 10.6448 0.571875 10.4781C0.671875 10.3115 0.813542 10.1865 0.996875 10.1031L4.49687 8.50313L6.09688 5.00313C6.18021 4.81979 6.30521 4.67812 6.47188 4.57812C6.63854 4.47812 6.81354 4.42813 6.99687 4.42813C7.18021 4.42813 7.35521 4.47812 7.52187 4.57812C7.68854 4.67812 7.81354 4.81979 7.89687 5.00313L9.49687 8.50313L12.9969 10.1031C13.1802 10.1865 13.3219 10.3115 13.4219 10.4781C13.5219 10.6448 13.5719 10.8198 13.5719 11.0031C13.5719 11.1865 13.5219 11.3615 13.4219 11.5281C13.3219 11.6948 13.1802 11.8198 12.9969 11.9031L9.49687 13.5031L7.89687 17.0031C7.81354 17.1865 7.68854 17.3281 7.52187 17.4281C7.35521 17.5281 7.18021 17.5781 6.99687 17.5781ZM6.99687 14.1531L7.99687 12.0031L10.1469 11.0031L7.99687 10.0031L6.99687 7.85313L5.99687 10.0031L3.84687 11.0031L5.99687 12.0031L6.99687 14.1531Z" fill="black" fill-opacity="0.6"/>
</svg>
