<svg width="16" height="16" viewBox="0 0 16 16" fill="none" xmlns="http://www.w3.org/2000/svg">
<path d="M11.2333 8.39995L10.4 7.56662L11.55 6.39995L10.4 5.24995L11.2333 4.39995L12.4 5.56662L13.55 4.39995L14.4 5.24995L13.2333 6.39995L14.4 7.56662L13.55 8.39995L12.4 7.24995L11.2333 8.39995ZM6.39998 7.99995C5.73331 7.99995 5.16664 7.76662 4.69998 7.29995C4.23331 6.83328 3.99998 6.26662 3.99998 5.59995C3.99998 4.93328 4.23331 4.36662 4.69998 3.89995C5.16664 3.43328 5.73331 3.19995 6.39998 3.19995C7.06664 3.19995 7.63331 3.43328 8.09998 3.89995C8.56664 4.36662 8.79998 4.93328 8.79998 5.59995C8.79998 6.26662 8.56664 6.83328 8.09998 7.29995C7.63331 7.76662 7.06664 7.99995 6.39998 7.99995ZM1.59998 12.8V11.2666C1.59998 10.9802 1.66942 10.7169 1.80831 10.4768C1.9472 10.2367 2.13886 10.0444 2.38331 9.89995C2.99442 9.5444 3.63886 9.27217 4.31664 9.08328C4.99442 8.8944 5.68886 8.79995 6.39998 8.79995C7.11109 8.79995 7.80553 8.8944 8.48331 9.08328C9.16109 9.27217 9.80553 9.5444 10.4166 9.89995C10.6611 10.0444 10.8528 10.2367 10.9916 10.4768C11.1305 10.7169 11.2 10.9802 11.2 11.2666V12.8H1.59998ZM2.79998 11.6H9.99998V11.2666C9.99998 11.1947 9.98314 11.1294 9.94948 11.0706C9.91592 11.0117 9.87164 10.966 9.81664 10.9333C9.29442 10.6333 8.74442 10.4027 8.16664 10.2416C7.58886 10.0805 6.99998 9.99995 6.39998 9.99995C5.79998 9.99995 5.21109 10.0805 4.63331 10.2416C4.05553 10.4027 3.50553 10.6333 2.98331 10.9333C2.92831 10.966 2.88398 11.0117 2.85031 11.0706C2.81675 11.1294 2.79998 11.1947 2.79998 11.2666V11.6ZM6.40348 6.79995C6.73448 6.79995 7.01664 6.68212 7.24998 6.44645C7.48331 6.21078 7.59998 5.92745 7.59998 5.59645C7.59998 5.26545 7.48214 4.98328 7.24648 4.74995C7.01081 4.51662 6.72748 4.39995 6.39648 4.39995C6.06548 4.39995 5.78331 4.51778 5.54998 4.75345C5.31664 4.98912 5.19998 5.27245 5.19998 5.60345C5.19998 5.93445 5.31781 6.21662 5.55348 6.44995C5.78914 6.68328 6.07248 6.79995 6.40348 6.79995Z" fill="#26064A" fill-opacity="0.8"/>
</svg>
