<svg width="40" height="40" viewBox="0 0 40 40" fill="none" xmlns="http://www.w3.org/2000/svg">
<rect width="40" height="40" rx="12" fill="#FFC107" fill-opacity="0.12"/>
<path fill-rule="evenodd" clip-rule="evenodd" d="M30.5601 24.3002L22.8901 11.5802C22.2598 10.5942 21.1703 9.99756 20.0001 9.99756C18.8299 9.99756 17.7404 10.5942 17.1101 11.5802L9.4401 24.3002C8.88865 25.2194 8.86959 26.3631 9.3901 27.3002C9.99207 28.3553 11.1153 29.0048 12.3301 29.0002H27.6701C28.8766 29.0131 29.9979 28.3799 30.6101 27.3402C31.1462 26.3928 31.1271 25.2294 30.5601 24.3002ZM20.0001 25.0002C19.4478 25.0002 19.0001 24.5525 19.0001 24.0002C19.0001 23.4479 19.4478 23.0002 20.0001 23.0002C20.5524 23.0002 21.0001 23.4479 21.0001 24.0002C21.0001 24.5525 20.5524 25.0002 20.0001 25.0002ZM20.0001 22.0002C20.5524 22.0002 21.0001 21.5525 21.0001 21.0002V17.0002C21.0001 16.4479 20.5524 16.0002 20.0001 16.0002C19.4478 16.0002 19.0001 16.4479 19.0001 17.0002V21.0002C19.0001 21.5525 19.4478 22.0002 20.0001 22.0002Z" fill="#FFC107"/>
</svg>
