<svg width="21" height="21" viewBox="0 0 21 21" fill="none" xmlns="http://www.w3.org/2000/svg">
<path d="M2.85059 18.1785C2.30059 18.1785 1.82975 17.9827 1.43809 17.591C1.04642 17.1994 0.850586 16.7285 0.850586 16.1785V12.1785C0.850586 11.6285 1.04642 11.1577 1.43809 10.766C1.82975 10.3744 2.30059 10.1785 2.85059 10.1785H16.8506C17.4006 10.1785 17.8714 10.3744 18.2631 10.766C18.6548 11.1577 18.8506 11.6285 18.8506 12.1785H2.85059V16.1785H11.8506C12.1339 16.1785 12.3714 16.2744 12.5631 16.466C12.7548 16.6577 12.8506 16.8952 12.8506 17.1785C12.8506 17.4619 12.7548 17.6994 12.5631 17.891C12.3714 18.0827 12.1339 18.1785 11.8506 18.1785H2.85059ZM2.85059 8.17853C2.30059 8.17853 1.82975 7.98269 1.43809 7.59103C1.04642 7.19936 0.850586 6.72853 0.850586 6.17853V2.17853C0.850586 1.62853 1.04642 1.15769 1.43809 0.766028C1.82975 0.374361 2.30059 0.178528 2.85059 0.178528H16.8506C17.4006 0.178528 17.8714 0.374361 18.2631 0.766028C18.6548 1.15769 18.8506 1.62853 18.8506 2.17853V6.17853C18.8506 6.72853 18.6548 7.19936 18.2631 7.59103C17.8714 7.98269 17.4006 8.17853 16.8506 8.17853H2.85059ZM2.85059 6.17853H16.8506V2.17853H2.85059V6.17853ZM16.8506 18.1785H15.8506C15.5673 18.1785 15.3298 18.0827 15.1381 17.891C14.9464 17.6994 14.8506 17.4619 14.8506 17.1785C14.8506 16.8952 14.9464 16.6577 15.1381 16.466C15.3298 16.2744 15.5673 16.1785 15.8506 16.1785H16.8506V15.1785C16.8506 14.8952 16.9464 14.6577 17.1381 14.466C17.3298 14.2744 17.5673 14.1785 17.8506 14.1785C18.1339 14.1785 18.3714 14.2744 18.5631 14.466C18.7548 14.6577 18.8506 14.8952 18.8506 15.1785V16.1785H19.8506C20.1339 16.1785 20.3714 16.2744 20.5631 16.466C20.7548 16.6577 20.8506 16.8952 20.8506 17.1785C20.8506 17.4619 20.7548 17.6994 20.5631 17.891C20.3714 18.0827 20.1339 18.1785 19.8506 18.1785H18.8506V19.1785C18.8506 19.4619 18.7548 19.6994 18.5631 19.891C18.3714 20.0827 18.1339 20.1785 17.8506 20.1785C17.5673 20.1785 17.3298 20.0827 17.1381 19.891C16.9464 19.6994 16.8506 19.4619 16.8506 19.1785V18.1785Z" fill="#8B33AE" fill-opacity="0.2"/>
</svg>
