<svg width="28" height="28" viewBox="0 0 28 28" fill="none" xmlns="http://www.w3.org/2000/svg">
<path d="M0 5.6C0 2.50721 2.50721 0 5.6 0H22.4C25.4928 0 28 2.50721 28 5.6V22.4C28 25.4928 25.4928 28 22.4 28H5.6C2.50721 28 0 25.4928 0 22.4V5.6Z" fill="#FAF5FF"/>
<path d="M8 8H13.3333V13.3333H8V8ZM14.6667 8H20V13.3333H14.6667V8ZM8 14.6667H13.3333V20H8V14.6667ZM16.6667 14.6667H18V16.6667H20V18H18V20H16.6667V18H14.6667V16.6667H16.6667V14.6667ZM16 9.33333V12H18.6667V9.33333H16ZM9.33333 9.33333V12H12V9.33333H9.33333ZM9.33333 16V18.6667H12V16H9.33333Z" fill="#6A12CD"/>
</svg>
