<svg width="19" height="18" viewBox="0 0 19 18" fill="none" xmlns="http://www.w3.org/2000/svg">
<path fill-rule="evenodd" clip-rule="evenodd" d="M18.14 9.20028C18.14 8.5621 18.0827 7.94847 17.9764 7.35938H9.5V10.8407H14.3436C14.135 11.9657 13.5009 12.9189 12.5477 13.5571V15.8153H15.4564C17.1582 14.2485 18.14 11.9412 18.14 9.20028Z" fill="#4285F4"/>
<path fill-rule="evenodd" clip-rule="evenodd" d="M9.49976 18.0009C11.9298 18.0009 13.967 17.195 15.4561 15.8205L12.5475 13.5623C11.7416 14.1023 10.7107 14.4214 9.49976 14.4214C7.15567 14.4214 5.17158 12.8382 4.46385 10.7109H1.45703V13.0428C2.93794 15.9841 5.98158 18.0009 9.49976 18.0009Z" fill="#34A853"/>
<path fill-rule="evenodd" clip-rule="evenodd" d="M4.46409 10.7128C4.28409 10.1728 4.18182 9.59594 4.18182 9.00276C4.18182 8.40957 4.28409 7.83276 4.46409 7.29276V4.96094H1.45727C0.847727 6.17594 0.5 7.55048 0.5 9.00276C0.5 10.455 0.847727 11.8296 1.45727 13.0446L4.46409 10.7128Z" fill="#FBBC05"/>
<path fill-rule="evenodd" clip-rule="evenodd" d="M9.49976 3.57955C10.8211 3.57955 12.0075 4.03364 12.9402 4.92545L15.5216 2.34409C13.9629 0.891818 11.9257 0 9.49976 0C5.98158 0 2.93794 2.01682 1.45703 4.95818L4.46385 7.29C5.17158 5.16273 7.15567 3.57955 9.49976 3.57955Z" fill="#EA4335"/>
</svg>
